# xmcd
#
# Track frame offsets: 
#        150
#        23892
#        43000
#        58187
#        71330
#        85177
#        102197
#        118897
#        135877
#        155665
#
# Disc length: 2278 seconds
#
# Revision: 0
# Processed by: cddbd v1.5.2PL0 Copyright (c) Steve Scherf et al.
# Submitted via: ExactAudioCopyFreeDBPlugin 1.0
#
DISCID=8108e40a
DTITLE=Various Artist - Today's Best Country Gospel
DYEAR=1995
DGENRE=
TTITLE0=Vince Gill - Go Rest High On That Mountain
TTITLE1=Diamond Rio - Mama Don't Forget to Pray for Me
TTITLE2=Ricky Van Shelton - Don't Over Look Salvation
TTITLE3=Paul Overstreet - Lost And Found
TTITLE4=Willie Nelson - Dreaming of a Little Cabin
TTITLE5=Shenandoah - Wednesday Night Prayer Meetin
TTITLE6=John Anderson - I'm just an Old Chunk of Coal
TTITLE7=The Statler Brothers - He's always There For You
TTITLE8=Marty Stuart - If I Give My Soul
TTITLE9=Wylie and the WIld West Show - Jesus Loves me
EXTD=
EXTT0=
EXTT1=
EXTT2=
EXTT3=
EXTT4=
EXTT5=
EXTT6=
EXTT7=
EXTT8=
EXTT9=
PLAYORDER=
